<?xml version="1.0" encoding="UTF-8" standalone="no"?>
<!DOCTYPE svg PUBLIC "-//W3C//DTD SVG 1.1//EN" "http://www.w3.org/Graphics/SVG/1.1/DTD/svg11.dtd">
<svg width="100%" height="100%" viewBox="0 0 4170 1819" version="1.1" xmlns="http://www.w3.org/2000/svg" xmlns:xlink="http://www.w3.org/1999/xlink" xml:space="preserve" xmlns:serif="http://www.serif.com/" style="fill-rule:evenodd;clip-rule:evenodd;stroke-linecap:round;stroke-linejoin:bevel;stroke-miterlimit:1.5;">
    <g transform="matrix(1,0,0,1.02968,0,-1221.51)">
        <path d="M4169.29,1283.66L4169.29,2855.39C4169.29,2909.13 4124.37,2952.76 4069.03,2952.76L100.257,2952.76C44.924,2952.76 0,2909.13 0,2855.39L0,1283.66C0,1229.92 44.924,1186.3 100.257,1186.3L4069.03,1186.3C4124.37,1186.3 4169.29,1229.92 4169.29,1283.66Z" style="stroke:black;stroke-width:10.26px;"/>
    </g>
    <g transform="matrix(1,0,0,1,-428.307,349.64)">
        <path d="M4597.6,1244.73L4597.6,1378.17C4597.6,1428.44 4556.78,1469.26 4506.51,1469.26L519.395,1469.26C469.122,1469.26 428.307,1428.44 428.307,1378.17L428.307,1244.73C879.95,956.179 1645.41,766.274 2512.95,766.274C3380.5,766.274 4145.96,956.179 4597.6,1244.73Z" style="fill:rgb(56,152,38);"/>
    </g>
    <g transform="matrix(3.90681,0,0,-3.90681,-1403.46,2443.92)">
        <g transform="matrix(0.0013029,4.16667,4.16667,-0.0013029,1197.22,-796.291)">
            <path d="M311.199,19.181C312.392,19.9 313.076,21.237 312.969,22.642L311.199,25.577C310.006,26.327 308.505,26.347 307.312,25.627L311.199,19.181Z" style="fill:rgb(203,60,51);"/>
        </g>
        <g transform="matrix(4.16667,0,0,4.16667,0,351.652)">
            <path d="M306.202,27.729C307.046,27.22 307.998,27.048 308.904,27.169C308.997,27.182 309.083,27.122 309.101,27.03L309.178,26.631C309.197,26.532 309.13,26.435 309.03,26.42C307.948,26.265 306.782,26.415 305.775,27.022C304.771,27.629 304.095,28.588 303.728,29.616C303.694,29.711 303.749,29.815 303.845,29.845L304.234,29.963C304.323,29.991 304.416,29.942 304.449,29.854C304.764,28.998 305.359,28.238 306.202,27.729ZM307.043,29.123C307.529,28.83 308.075,28.72 308.599,28.773C308.691,28.782 308.776,28.723 308.793,28.632L308.878,28.19C308.898,28.089 308.829,27.991 308.729,27.979C308.021,27.895 307.274,28.021 306.617,28.417C305.962,28.812 305.503,29.414 305.247,30.078C305.21,30.172 305.266,30.279 305.363,30.308L305.794,30.44C305.883,30.468 305.974,30.42 306.009,30.334C306.207,29.847 306.558,29.416 307.043,29.123ZM308.574,29.775C308.594,29.668 308.515,29.567 308.407,29.562C308.082,29.546 307.744,29.612 307.446,29.792C307.149,29.971 306.934,30.239 306.796,30.533C306.75,30.631 306.803,30.748 306.906,30.78L308.113,31.148C308.213,31.179 308.316,31.116 308.336,31.013L308.574,29.775Z" style="fill:rgb(203,60,51);"/>
        </g>
        <g transform="matrix(4.16667,0,0,4.16667,0,459.65)">
            <path d="M310.711,11.299C309.521,12.017 309.138,13.566 309.856,14.756L313.144,20.204C313.862,21.394 315.411,21.777 316.6,21.059L317.983,20.225C319.172,19.507 319.556,17.958 318.837,16.768L315.55,11.32C314.832,10.13 313.283,9.747 312.093,10.465L310.711,11.299Z" style="fill:rgb(203,60,51);"/>
        </g>
        <g transform="matrix(4.16667,0,0,4.16667,0,507.474)">
            <path d="M315.759,6.625L321.671,9.985L315.977,13.422L315.759,6.625Z" style="fill:rgb(203,60,51);"/>
        </g>
        <g transform="matrix(4.16667,0,0,4.16667,0,385.51)">
            <path d="M308.611,23.59L310.017,25.505L309.649,25.727L308.611,23.59Z" style="fill:rgb(203,60,51);"/>
        </g>
        <g transform="matrix(2.1537,3.56689,3.56689,-2.1537,529.456,-561.566)">
            <ellipse cx="308.611" cy="25.727" rx="0.215" ry="0.215" style="fill:rgb(203,60,51);"/>
        </g>
        <g transform="matrix(2.15276,3.56745,3.56745,-2.15276,575.216,-589.875)">
            <path d="M316.025,21.691L324.458,21.691L323.609,16.422L316.875,16.421L316.025,21.691Z" style="fill:rgb(203,60,51);"/>
        </g>
        <g transform="matrix(-2.15276,-3.56745,-3.56745,2.15276,1992.85,1615.7)">
            <path d="M304.538,14.296L312.971,14.296L312.122,9.027L305.388,9.026L304.538,14.296Z" style="fill:rgb(203,60,51);"/>
        </g>
        <g transform="matrix(2.15392,3.56675,3.56675,-2.15392,576.03,-577.33)">
            <rect x="317.031" y="16.842" width="1.076" height="1.729" style="fill:rgb(203,60,51);"/>
        </g>
        <g transform="matrix(2.15392,3.56675,3.56675,-2.15392,576.944,-546.073)">
            <rect x="310.494" y="12.897" width="1.076" height="1.729" style="fill:rgb(203,60,51);"/>
        </g>
    </g>
    <g transform="matrix(1.75599,0,0,1.75599,3329.89,840.847)">
        <path d="M89.235,40.459C88.506,39.483 87.388,38.923 86.17,38.923L74.085,38.923L74.085,30.412C74.085,27.556 71.761,25.231 68.904,25.231L64.03,25.231L64.03,9.175C64.03,7.215 62.436,5.621 60.476,5.621L13.819,5.621C11.859,5.621 10.265,7.215 10.265,9.175L10.265,15.487L5.18,15.487C2.324,15.487 -0.001,17.811 -0.001,20.668L-0.001,80.238C-0.001,82.522 1.857,84.381 4.141,84.381L74.216,84.381C76.605,84.381 78.461,82.644 79.309,79.628L89.84,43.835C90.186,42.665 89.965,41.435 89.235,40.459ZM68.905,28.231C70.107,28.231 71.086,29.209 71.086,30.412L71.086,38.923L64.031,38.923L64.031,28.231L68.905,28.231ZM13.819,8.621L60.477,8.621C60.783,8.621 61.031,8.87 61.031,9.175L61.031,38.924L21.036,38.924C18.698,38.924 16.616,40.494 15.971,42.741L13.265,52.182L13.265,9.175C13.265,8.869 13.514,8.621 13.819,8.621ZM4.142,81.379C3.512,81.379 3,80.866 3,80.236L3,20.667C3,19.464 3.978,18.486 5.181,18.486L10.266,18.486L10.266,62.647L5.341,79.827C4.9,81.379 4.388,81.379 4.142,81.379ZM86.963,42.986L76.426,78.797C76.095,79.976 75.443,81.379 74.204,81.379L7.985,81.379C8.071,81.152 8.152,80.91 8.226,80.65L13.151,63.466L13.265,63.466L13.265,63.069L18.855,43.567C19.132,42.599 20.029,41.923 21.036,41.923L86.169,41.923C86.53,41.923 86.739,42.131 86.832,42.255C86.925,42.379 87.066,42.639 86.963,42.986Z" style="fill:rgb(64,99,216);fill-rule:nonzero;"/>
        <path d="M53.125,20.484L20.287,20.484C19.458,20.484 18.787,19.813 18.787,18.984C18.787,18.155 19.458,17.484 20.287,17.484L53.125,17.484C53.953,17.484 54.625,18.155 54.625,18.984C54.625,19.813 53.954,20.484 53.125,20.484Z" style="fill:rgb(64,99,216);fill-rule:nonzero;"/>
        <path d="M53.125,29.484L20.287,29.484C19.458,29.484 18.787,28.813 18.787,27.984C18.787,27.155 19.458,26.484 20.287,26.484L53.125,26.484C53.953,26.484 54.625,27.155 54.625,27.984C54.625,28.813 53.954,29.484 53.125,29.484Z" style="fill:rgb(64,99,216);fill-rule:nonzero;"/>
    </g>
    <g transform="matrix(0.835029,0.290142,0.289549,0.490597,9.12791,-1359)">
        <path d="M3540.58,2031.01L3238.57,2561.76" style="fill:none;stroke:rgb(149,88,178);stroke-width:30.13px;"/>
    </g>
    <g transform="matrix(0.83431,0.291403,0.290807,0.48839,-199.363,-993.351)">
        <path d="M3540.58,2031.01L3238.57,2561.76" style="fill:none;stroke:rgb(149,88,178);stroke-width:30.13px;"/>
    </g>
    <g transform="matrix(1,0,0,1,0,-1353.86)">
        <path d="M3511.99,2010.01L3345.21,2104.92" style="fill:none;stroke:rgb(149,88,178);stroke-width:10.42px;"/>
    </g>
    <g transform="matrix(1,0,0,1,0,-1353.86)">
        <path d="M3585.1,2042.62L3599.1,2215.58" style="fill:none;stroke:rgb(149,88,178);stroke-width:10.42px;"/>
    </g>
    <g transform="matrix(0.788757,0,0,0.788757,-82.6256,-7.95192)">
        <g transform="matrix(14.9615,0,0,14.9615,122.209,-243.651)">
            <g transform="matrix(64.1275,0,0,64.1275,-1.52685,81.6694)">
                <path d="M0.08,-0.455L0.186,-0.51L0.231,-0.51L0.231,-0L0.08,-0L0.08,-0.455ZM0.073,-0.674C0.073,-0.684 0.075,-0.694 0.08,-0.703C0.084,-0.712 0.09,-0.72 0.097,-0.727C0.105,-0.733 0.113,-0.738 0.123,-0.742C0.133,-0.746 0.143,-0.748 0.155,-0.748C0.166,-0.748 0.177,-0.746 0.187,-0.742C0.197,-0.738 0.205,-0.733 0.213,-0.727C0.22,-0.72 0.226,-0.712 0.23,-0.703C0.234,-0.694 0.236,-0.684 0.236,-0.674C0.236,-0.664 0.234,-0.655 0.23,-0.646C0.226,-0.637 0.22,-0.629 0.213,-0.623C0.205,-0.616 0.197,-0.611 0.187,-0.607C0.177,-0.603 0.166,-0.601 0.155,-0.601C0.143,-0.601 0.133,-0.603 0.123,-0.607C0.113,-0.611 0.105,-0.616 0.097,-0.623C0.09,-0.629 0.084,-0.637 0.08,-0.646C0.075,-0.655 0.073,-0.664 0.073,-0.674Z" style="fill:white;fill-rule:nonzero;"/>
            </g>
            <g transform="matrix(64.1275,0,0,64.1275,15.4156,81.6694)">
                <path d="M0.418,-0.353C0.417,-0.357 0.414,-0.364 0.41,-0.375C0.405,-0.385 0.399,-0.396 0.39,-0.406C0.382,-0.417 0.37,-0.427 0.356,-0.436C0.342,-0.444 0.324,-0.448 0.303,-0.448C0.287,-0.448 0.272,-0.444 0.259,-0.436C0.246,-0.428 0.235,-0.417 0.226,-0.403C0.217,-0.39 0.21,-0.374 0.205,-0.355C0.2,-0.337 0.197,-0.318 0.197,-0.298C0.197,-0.27 0.2,-0.244 0.207,-0.218C0.213,-0.193 0.222,-0.17 0.233,-0.151C0.245,-0.132 0.259,-0.116 0.275,-0.105C0.291,-0.094 0.309,-0.088 0.329,-0.088C0.346,-0.088 0.361,-0.091 0.375,-0.098C0.388,-0.105 0.401,-0.114 0.412,-0.125C0.423,-0.137 0.433,-0.15 0.441,-0.166C0.45,-0.181 0.458,-0.198 0.466,-0.215L0.539,-0.196C0.53,-0.163 0.518,-0.134 0.503,-0.109C0.488,-0.083 0.471,-0.062 0.45,-0.044C0.429,-0.027 0.406,-0.014 0.38,-0.004C0.354,0.005 0.326,0.009 0.295,0.009C0.26,0.009 0.228,0.003 0.198,-0.01C0.167,-0.024 0.141,-0.042 0.119,-0.064C0.096,-0.087 0.078,-0.113 0.065,-0.143C0.052,-0.173 0.046,-0.205 0.046,-0.239C0.046,-0.264 0.049,-0.287 0.055,-0.31C0.062,-0.333 0.071,-0.355 0.082,-0.375C0.094,-0.395 0.108,-0.413 0.124,-0.429C0.14,-0.446 0.158,-0.46 0.177,-0.472C0.197,-0.483 0.218,-0.493 0.241,-0.499C0.263,-0.506 0.286,-0.509 0.311,-0.509C0.336,-0.509 0.359,-0.507 0.378,-0.504C0.397,-0.501 0.414,-0.495 0.429,-0.488C0.444,-0.481 0.457,-0.472 0.469,-0.46C0.482,-0.449 0.494,-0.435 0.506,-0.418L0.418,-0.353Z" style="fill:white;fill-rule:nonzero;"/>
            </g>
            <g transform="matrix(64.1275,0,0,64.1275,50.1747,81.6694)">
                <path d="M0.305,-0.258C0.29,-0.252 0.275,-0.244 0.26,-0.235C0.245,-0.227 0.232,-0.217 0.22,-0.206C0.208,-0.195 0.198,-0.183 0.191,-0.17C0.183,-0.156 0.179,-0.142 0.179,-0.127C0.179,-0.111 0.184,-0.098 0.192,-0.088C0.201,-0.079 0.212,-0.074 0.227,-0.074C0.239,-0.074 0.252,-0.078 0.264,-0.085C0.276,-0.093 0.289,-0.102 0.305,-0.114L0.305,-0.258ZM0.027,-0.373C0.033,-0.394 0.042,-0.413 0.055,-0.43C0.068,-0.447 0.084,-0.462 0.103,-0.473C0.123,-0.485 0.145,-0.494 0.17,-0.501C0.195,-0.507 0.222,-0.511 0.25,-0.511C0.286,-0.511 0.317,-0.507 0.343,-0.501C0.369,-0.494 0.391,-0.485 0.407,-0.473C0.424,-0.462 0.437,-0.447 0.445,-0.43C0.453,-0.414 0.457,-0.395 0.457,-0.374L0.457,-0.088C0.457,-0.067 0.463,-0.05 0.476,-0.036C0.488,-0.021 0.506,-0.009 0.529,-0L0.35,-0C0.344,-0 0.339,-0.001 0.334,-0.004C0.33,-0.007 0.325,-0.011 0.321,-0.016C0.317,-0.021 0.314,-0.026 0.311,-0.031C0.308,-0.037 0.306,-0.042 0.305,-0.047C0.296,-0.039 0.287,-0.031 0.279,-0.024C0.271,-0.017 0.262,-0.011 0.252,-0.006C0.242,-0.001 0.231,0.002 0.219,0.005C0.207,0.008 0.193,0.009 0.176,0.009C0.153,0.009 0.132,0.006 0.114,-0C0.095,-0.007 0.08,-0.016 0.067,-0.028C0.054,-0.039 0.044,-0.053 0.037,-0.069C0.03,-0.084 0.027,-0.102 0.027,-0.12C0.027,-0.149 0.035,-0.173 0.051,-0.194C0.067,-0.214 0.088,-0.232 0.114,-0.248C0.14,-0.263 0.17,-0.276 0.203,-0.288C0.236,-0.299 0.27,-0.31 0.305,-0.32L0.305,-0.369C0.305,-0.385 0.303,-0.399 0.3,-0.41C0.297,-0.421 0.292,-0.43 0.286,-0.437C0.28,-0.444 0.273,-0.449 0.265,-0.452C0.257,-0.455 0.247,-0.457 0.237,-0.457C0.225,-0.457 0.215,-0.455 0.205,-0.45C0.196,-0.446 0.188,-0.439 0.181,-0.432C0.174,-0.424 0.168,-0.415 0.164,-0.405C0.16,-0.395 0.157,-0.384 0.155,-0.373L0.027,-0.373Z" style="fill:white;fill-rule:nonzero;"/>
            </g>
            <g transform="matrix(64.1275,0,0,64.1275,81.9279,81.6694)">
                <path d="M0.402,-0.395C0.395,-0.401 0.389,-0.406 0.383,-0.41C0.377,-0.414 0.372,-0.418 0.366,-0.42C0.361,-0.423 0.355,-0.425 0.349,-0.426C0.343,-0.427 0.336,-0.428 0.329,-0.428C0.318,-0.428 0.308,-0.426 0.298,-0.423C0.288,-0.419 0.278,-0.414 0.27,-0.408C0.261,-0.402 0.253,-0.395 0.246,-0.387C0.239,-0.379 0.233,-0.371 0.229,-0.362L0.229,-0L0.078,-0L0.078,-0.455L0.184,-0.51L0.229,-0.461C0.246,-0.479 0.265,-0.493 0.285,-0.503C0.305,-0.513 0.327,-0.519 0.349,-0.519C0.371,-0.519 0.391,-0.514 0.408,-0.505C0.426,-0.496 0.441,-0.486 0.454,-0.476L0.402,-0.395Z" style="fill:white;fill-rule:nonzero;"/>
            </g>
            <g transform="matrix(64.1275,0,0,64.1275,106.98,81.6694)">
                <path d="M0.298,0.011C0.262,0.011 0.229,0.005 0.198,-0.009C0.167,-0.022 0.139,-0.039 0.116,-0.062C0.093,-0.084 0.075,-0.11 0.061,-0.139C0.048,-0.169 0.041,-0.2 0.041,-0.233C0.041,-0.272 0.047,-0.309 0.06,-0.343C0.072,-0.376 0.09,-0.405 0.112,-0.43C0.135,-0.455 0.162,-0.474 0.194,-0.488C0.226,-0.502 0.261,-0.509 0.3,-0.509C0.335,-0.509 0.367,-0.503 0.396,-0.492C0.425,-0.481 0.45,-0.466 0.47,-0.447C0.491,-0.428 0.507,-0.405 0.519,-0.379C0.53,-0.353 0.536,-0.325 0.536,-0.295L0.189,-0.295C0.191,-0.268 0.195,-0.241 0.202,-0.216C0.209,-0.191 0.218,-0.169 0.23,-0.15C0.242,-0.131 0.255,-0.116 0.271,-0.105C0.287,-0.094 0.305,-0.088 0.324,-0.088C0.34,-0.088 0.357,-0.091 0.373,-0.096C0.389,-0.102 0.404,-0.11 0.417,-0.12C0.431,-0.13 0.443,-0.141 0.453,-0.155C0.463,-0.168 0.471,-0.182 0.475,-0.197L0.552,-0.185C0.544,-0.158 0.532,-0.133 0.515,-0.109C0.498,-0.085 0.478,-0.064 0.455,-0.046C0.432,-0.028 0.407,-0.014 0.38,-0.004C0.353,0.006 0.326,0.011 0.298,0.011ZM0.362,-0.347C0.361,-0.362 0.357,-0.375 0.352,-0.387C0.347,-0.4 0.341,-0.41 0.333,-0.419C0.325,-0.428 0.316,-0.434 0.306,-0.439C0.295,-0.444 0.284,-0.446 0.272,-0.446C0.263,-0.446 0.253,-0.444 0.244,-0.439C0.235,-0.434 0.227,-0.428 0.219,-0.419C0.212,-0.411 0.206,-0.4 0.201,-0.388C0.196,-0.376 0.193,-0.362 0.191,-0.347L0.362,-0.347Z" style="fill:white;fill-rule:nonzero;"/>
            </g>
        </g>
        <g id="path19" transform="matrix(10.3698,0,0,10.3698,32.0302,52.4368)">
            <path d="M22.17,36.33C17.288,36.33 13.27,32.312 13.27,27.43C13.27,22.548 17.288,18.53 22.17,18.53C27.052,18.53 31.07,22.548 31.07,27.43C31.065,32.31 27.05,36.325 22.17,36.33Z" style="fill:rgb(77,100,174);fill-rule:nonzero;"/>
        </g>
        <g transform="matrix(1,0,0,1,597.051,-1133.86)">
            <g id="path13" transform="matrix(10.3698,0,0,10.3698,32.0302,1186.3)">
                <path d="M105.79,36.33C100.911,36.325 96.9,32.309 96.9,27.43C96.9,22.548 100.918,18.53 105.8,18.53C110.682,18.53 114.7,22.548 114.7,27.43C114.695,32.314 110.674,36.33 105.79,36.33Z" style="fill:rgb(202,60,50);fill-rule:nonzero;"/>
            </g>
            <g id="path25" transform="matrix(10.3698,0,0,10.3698,32.0302,1186.3)">
                <path d="M127.18,36.33C122.301,36.325 118.29,32.309 118.29,27.43C118.29,22.548 122.308,18.53 127.19,18.53C132.072,18.53 136.09,22.548 136.09,27.43C136.085,32.314 132.064,36.33 127.18,36.33Z" style="fill:rgb(146,89,163);fill-rule:nonzero;"/>
            </g>
            <g id="path31" transform="matrix(10.3698,0,0,10.3698,32.0302,1186.3)">
                <path d="M116.49,17.8C111.608,17.8 107.59,13.782 107.59,8.9C107.59,4.018 111.608,0 116.49,0C121.372,0 125.39,4.018 125.39,8.9C125.39,8.903 125.39,8.907 125.39,8.91C125.39,13.787 121.377,17.8 116.5,17.8C116.497,17.8 116.493,17.8 116.49,17.8Z" style="fill:rgb(57,151,70);fill-rule:nonzero;"/>
            </g>
        </g>
    </g>
    <g transform="matrix(1,0,0,1,-4.31137,-26.3362)">
        <g transform="matrix(160.54,0,0,160.54,51.1769,1010.7)">
            <path d="M0.418,-0.104C0.418,-0.087 0.419,-0.068 0.421,-0.049C0.422,-0.029 0.424,-0.013 0.426,-0L0.405,-0C0.404,-0.007 0.403,-0.015 0.402,-0.025C0.401,-0.034 0.401,-0.044 0.4,-0.055C0.399,-0.065 0.398,-0.075 0.398,-0.085C0.397,-0.095 0.397,-0.103 0.397,-0.11L0.394,-0.11C0.381,-0.068 0.358,-0.037 0.325,-0.017C0.292,0.004 0.257,0.014 0.22,0.014C0.201,0.014 0.183,0.011 0.165,0.006C0.146,0.001 0.13,-0.007 0.115,-0.018C0.1,-0.029 0.089,-0.042 0.08,-0.059C0.071,-0.076 0.066,-0.095 0.066,-0.118C0.066,-0.151 0.075,-0.177 0.092,-0.197C0.109,-0.217 0.13,-0.233 0.155,-0.244C0.18,-0.255 0.208,-0.262 0.237,-0.265C0.266,-0.268 0.292,-0.27 0.316,-0.27L0.396,-0.27L0.396,-0.307C0.396,-0.358 0.382,-0.396 0.355,-0.42C0.328,-0.443 0.292,-0.455 0.248,-0.455C0.221,-0.455 0.195,-0.45 0.172,-0.44C0.148,-0.43 0.127,-0.417 0.108,-0.4L0.096,-0.417C0.117,-0.436 0.141,-0.45 0.169,-0.46C0.196,-0.469 0.222,-0.474 0.248,-0.474C0.301,-0.474 0.342,-0.46 0.373,-0.434C0.403,-0.407 0.418,-0.364 0.418,-0.306L0.418,-0.104ZM0.396,-0.251L0.325,-0.251C0.3,-0.251 0.273,-0.249 0.245,-0.247C0.217,-0.243 0.191,-0.237 0.168,-0.228C0.145,-0.219 0.126,-0.205 0.111,-0.188C0.095,-0.171 0.088,-0.147 0.088,-0.118C0.088,-0.097 0.092,-0.079 0.101,-0.065C0.109,-0.05 0.12,-0.039 0.133,-0.03C0.146,-0.021 0.16,-0.015 0.176,-0.011C0.191,-0.007 0.206,-0.005 0.22,-0.005C0.254,-0.005 0.282,-0.011 0.305,-0.024C0.328,-0.037 0.346,-0.053 0.36,-0.073C0.373,-0.092 0.383,-0.114 0.388,-0.138C0.393,-0.161 0.396,-0.184 0.396,-0.207L0.396,-0.251Z" style="fill:white;fill-rule:nonzero;"/>
        </g>
        <g transform="matrix(160.54,0,0,160.54,125.346,1010.7)">
            <path d="M0.28,0.001C0.272,0.004 0.263,0.007 0.252,0.009C0.241,0.011 0.231,0.012 0.221,0.012C0.185,0.012 0.159,0.002 0.144,-0.019C0.128,-0.039 0.12,-0.064 0.12,-0.095L0.12,-0.441L0.02,-0.441L0.02,-0.46L0.119,-0.46L0.119,-0.595L0.142,-0.595L0.142,-0.46L0.277,-0.46L0.277,-0.441L0.142,-0.441L0.142,-0.095C0.142,-0.064 0.15,-0.041 0.165,-0.028C0.18,-0.014 0.201,-0.007 0.226,-0.007C0.245,-0.007 0.262,-0.01 0.277,-0.016L0.28,0.001Z" style="fill:white;fill-rule:nonzero;"/>
        </g>
        <g transform="matrix(160.54,0,0,160.54,167.729,1010.7)">
            <path d="M0.454,-0.333C0.467,-0.378 0.49,-0.413 0.522,-0.438C0.554,-0.462 0.59,-0.474 0.631,-0.474C0.662,-0.474 0.688,-0.468 0.709,-0.457C0.729,-0.446 0.746,-0.431 0.759,-0.412C0.771,-0.393 0.78,-0.372 0.785,-0.349C0.79,-0.326 0.793,-0.302 0.793,-0.278L0.793,-0L0.771,-0L0.771,-0.276C0.771,-0.295 0.769,-0.315 0.765,-0.336C0.76,-0.357 0.753,-0.377 0.742,-0.394C0.731,-0.411 0.717,-0.426 0.699,-0.438C0.681,-0.449 0.658,-0.455 0.631,-0.455C0.607,-0.455 0.584,-0.45 0.564,-0.44C0.543,-0.429 0.524,-0.414 0.509,-0.395C0.493,-0.376 0.48,-0.352 0.471,-0.325C0.462,-0.297 0.457,-0.265 0.457,-0.23L0.457,-0L0.435,-0L0.435,-0.276C0.435,-0.295 0.433,-0.315 0.43,-0.336C0.426,-0.357 0.419,-0.377 0.409,-0.394C0.399,-0.411 0.385,-0.426 0.368,-0.438C0.35,-0.449 0.327,-0.455 0.3,-0.455C0.276,-0.455 0.254,-0.45 0.233,-0.44C0.212,-0.429 0.193,-0.414 0.178,-0.395C0.162,-0.376 0.15,-0.352 0.141,-0.325C0.132,-0.297 0.127,-0.265 0.127,-0.23L0.127,-0L0.105,-0L0.105,-0.344C0.105,-0.351 0.105,-0.36 0.105,-0.371C0.104,-0.382 0.104,-0.393 0.104,-0.404C0.103,-0.415 0.103,-0.425 0.102,-0.435C0.101,-0.445 0.101,-0.453 0.1,-0.46L0.122,-0.46C0.123,-0.453 0.123,-0.445 0.124,-0.435C0.124,-0.425 0.125,-0.38 0.126,-0.369C0.126,-0.358 0.126,-0.348 0.126,-0.339L0.128,-0.339C0.135,-0.36 0.144,-0.379 0.156,-0.396C0.168,-0.413 0.182,-0.427 0.197,-0.439C0.212,-0.45 0.228,-0.459 0.246,-0.465C0.263,-0.471 0.281,-0.474 0.3,-0.474C0.324,-0.474 0.345,-0.47 0.363,-0.463C0.38,-0.456 0.395,-0.446 0.407,-0.433C0.419,-0.42 0.429,-0.406 0.436,-0.389C0.443,-0.372 0.449,-0.353 0.452,-0.333L0.454,-0.333Z" style="fill:white;fill-rule:nonzero;"/>
        </g>
        <g transform="matrix(160.54,0,0,160.54,304.027,1010.7)">
            <path d="M0.543,-0.231C0.543,-0.195 0.537,-0.162 0.526,-0.132C0.514,-0.102 0.497,-0.076 0.476,-0.055C0.455,-0.033 0.429,-0.016 0.4,-0.004C0.37,0.008 0.337,0.014 0.302,0.014C0.267,0.014 0.234,0.008 0.205,-0.004C0.176,-0.016 0.15,-0.033 0.129,-0.055C0.108,-0.076 0.091,-0.102 0.08,-0.132C0.068,-0.162 0.062,-0.195 0.062,-0.231C0.062,-0.267 0.068,-0.3 0.08,-0.33C0.091,-0.359 0.108,-0.385 0.129,-0.406C0.15,-0.427 0.176,-0.444 0.205,-0.456C0.234,-0.468 0.267,-0.474 0.302,-0.474C0.337,-0.474 0.37,-0.468 0.4,-0.456C0.429,-0.444 0.455,-0.427 0.476,-0.406C0.497,-0.385 0.514,-0.359 0.526,-0.33C0.537,-0.3 0.543,-0.267 0.543,-0.231ZM0.521,-0.231C0.521,-0.262 0.516,-0.291 0.506,-0.318C0.496,-0.345 0.482,-0.369 0.463,-0.39C0.444,-0.41 0.421,-0.426 0.394,-0.438C0.367,-0.449 0.336,-0.455 0.302,-0.455C0.268,-0.455 0.238,-0.449 0.211,-0.438C0.184,-0.426 0.162,-0.41 0.143,-0.39C0.124,-0.369 0.109,-0.345 0.099,-0.318C0.089,-0.291 0.084,-0.262 0.084,-0.231C0.084,-0.2 0.089,-0.17 0.099,-0.143C0.109,-0.116 0.124,-0.092 0.143,-0.072C0.162,-0.051 0.184,-0.035 0.211,-0.023C0.238,-0.011 0.268,-0.005 0.302,-0.005C0.336,-0.005 0.367,-0.011 0.394,-0.023C0.421,-0.035 0.444,-0.051 0.463,-0.072C0.482,-0.092 0.496,-0.116 0.506,-0.143C0.516,-0.17 0.521,-0.2 0.521,-0.231Z" style="fill:white;fill-rule:nonzero;"/>
        </g>
        <g transform="matrix(160.54,0,0,160.54,394.732,1010.7)">
            <path d="M0.361,-0.12C0.361,-0.099 0.357,-0.081 0.349,-0.065C0.341,-0.048 0.33,-0.034 0.317,-0.023C0.303,-0.012 0.287,-0.003 0.269,0.003C0.251,0.009 0.232,0.012 0.211,0.012C0.177,0.012 0.146,0.006 0.119,-0.008C0.091,-0.021 0.068,-0.04 0.05,-0.065L0.068,-0.077C0.101,-0.03 0.149,-0.007 0.212,-0.007C0.227,-0.007 0.242,-0.009 0.257,-0.014C0.272,-0.019 0.285,-0.026 0.298,-0.035C0.31,-0.044 0.32,-0.056 0.328,-0.07C0.335,-0.084 0.339,-0.1 0.339,-0.118C0.339,-0.139 0.334,-0.157 0.325,-0.17C0.315,-0.183 0.303,-0.194 0.288,-0.202C0.273,-0.21 0.257,-0.217 0.24,-0.222C0.222,-0.227 0.205,-0.231 0.19,-0.235C0.173,-0.24 0.158,-0.245 0.143,-0.251C0.128,-0.256 0.115,-0.264 0.105,-0.273C0.093,-0.282 0.085,-0.293 0.079,-0.306C0.072,-0.319 0.069,-0.336 0.069,-0.356C0.069,-0.376 0.073,-0.393 0.081,-0.408C0.089,-0.423 0.1,-0.435 0.113,-0.445C0.126,-0.454 0.141,-0.462 0.159,-0.467C0.175,-0.472 0.193,-0.474 0.21,-0.474C0.273,-0.474 0.32,-0.452 0.351,-0.407L0.332,-0.396C0.317,-0.416 0.299,-0.431 0.28,-0.441C0.261,-0.45 0.237,-0.455 0.21,-0.455C0.197,-0.455 0.184,-0.453 0.17,-0.45C0.156,-0.447 0.143,-0.441 0.132,-0.434C0.12,-0.426 0.11,-0.416 0.103,-0.403C0.095,-0.39 0.091,-0.375 0.091,-0.357C0.091,-0.337 0.094,-0.321 0.101,-0.309C0.107,-0.297 0.116,-0.287 0.127,-0.28C0.138,-0.273 0.152,-0.267 0.168,-0.262C0.184,-0.257 0.202,-0.252 0.221,-0.247C0.239,-0.242 0.257,-0.237 0.274,-0.231C0.291,-0.224 0.306,-0.216 0.319,-0.207C0.332,-0.198 0.342,-0.186 0.35,-0.172C0.357,-0.158 0.361,-0.141 0.361,-0.12Z" style="fill:white;fill-rule:nonzero;"/>
        </g>
        <g transform="matrix(160.54,0,0,160.54,454.934,1010.7)">
            <path d="M0.127,-0.335C0.147,-0.381 0.175,-0.416 0.213,-0.439C0.25,-0.462 0.29,-0.474 0.334,-0.474C0.368,-0.474 0.399,-0.468 0.428,-0.456C0.456,-0.443 0.48,-0.426 0.501,-0.405C0.521,-0.383 0.537,-0.357 0.548,-0.327C0.559,-0.297 0.564,-0.264 0.564,-0.229C0.564,-0.194 0.558,-0.162 0.547,-0.133C0.536,-0.103 0.52,-0.077 0.5,-0.056C0.479,-0.034 0.455,-0.017 0.427,-0.005C0.398,0.008 0.367,0.014 0.334,0.014C0.312,0.014 0.291,0.011 0.27,0.005C0.249,-0.001 0.229,-0.01 0.211,-0.022C0.193,-0.033 0.177,-0.048 0.162,-0.065C0.147,-0.082 0.136,-0.101 0.127,-0.124L0.124,-0.124L0.124,0.24L0.102,0.24L0.102,-0.46L0.124,-0.46L0.124,-0.335L0.127,-0.335ZM0.542,-0.229C0.542,-0.259 0.537,-0.288 0.528,-0.315C0.518,-0.342 0.504,-0.366 0.486,-0.387C0.468,-0.408 0.446,-0.424 0.421,-0.437C0.395,-0.449 0.366,-0.455 0.334,-0.455C0.303,-0.455 0.275,-0.449 0.25,-0.437C0.224,-0.425 0.202,-0.409 0.183,-0.389C0.164,-0.368 0.15,-0.344 0.139,-0.317C0.128,-0.29 0.123,-0.261 0.123,-0.23C0.123,-0.199 0.128,-0.17 0.139,-0.143C0.15,-0.116 0.164,-0.092 0.183,-0.072C0.202,-0.051 0.224,-0.035 0.25,-0.023C0.275,-0.011 0.303,-0.005 0.334,-0.005C0.366,-0.005 0.395,-0.011 0.421,-0.023C0.446,-0.035 0.468,-0.051 0.486,-0.072C0.504,-0.092 0.518,-0.116 0.528,-0.143C0.537,-0.17 0.542,-0.199 0.542,-0.229Z" style="fill:white;fill-rule:nonzero;"/>
        </g>
        <g transform="matrix(160.54,0,0,160.54,549.01,1010.7)">
            <path d="M0.126,-0.339C0.133,-0.36 0.142,-0.379 0.155,-0.396C0.167,-0.413 0.181,-0.427 0.197,-0.439C0.213,-0.45 0.23,-0.459 0.249,-0.465C0.268,-0.471 0.287,-0.474 0.307,-0.474C0.339,-0.474 0.366,-0.468 0.387,-0.457C0.408,-0.446 0.425,-0.431 0.438,-0.412C0.451,-0.393 0.46,-0.372 0.465,-0.349C0.47,-0.326 0.473,-0.302 0.473,-0.278L0.473,-0L0.451,-0L0.451,-0.276C0.451,-0.295 0.449,-0.315 0.445,-0.336C0.441,-0.357 0.434,-0.377 0.423,-0.394C0.412,-0.411 0.397,-0.426 0.378,-0.438C0.359,-0.449 0.336,-0.455 0.307,-0.455C0.282,-0.455 0.258,-0.45 0.236,-0.44C0.213,-0.429 0.194,-0.414 0.178,-0.395C0.161,-0.376 0.148,-0.352 0.139,-0.325C0.129,-0.297 0.124,-0.265 0.124,-0.23L0.124,-0L0.102,-0L0.102,-0.756L0.124,-0.756L0.124,-0.339L0.126,-0.339Z" style="fill:white;fill-rule:nonzero;"/>
        </g>
        <g transform="matrix(160.54,0,0,160.54,633.936,1010.7)">
            <path d="M0.084,-0.235C0.084,-0.207 0.088,-0.179 0.097,-0.152C0.105,-0.125 0.118,-0.1 0.135,-0.079C0.152,-0.057 0.173,-0.039 0.199,-0.026C0.225,-0.013 0.256,-0.006 0.291,-0.006C0.327,-0.006 0.359,-0.013 0.387,-0.028C0.415,-0.042 0.439,-0.063 0.46,-0.09L0.476,-0.076C0.453,-0.047 0.427,-0.024 0.397,-0.009C0.366,0.006 0.331,0.014 0.291,0.014C0.257,0.014 0.226,0.008 0.198,-0.005C0.17,-0.017 0.146,-0.034 0.126,-0.056C0.105,-0.078 0.09,-0.104 0.079,-0.135C0.068,-0.166 0.062,-0.199 0.062,-0.235C0.062,-0.27 0.068,-0.302 0.079,-0.331C0.09,-0.36 0.106,-0.386 0.126,-0.407C0.145,-0.428 0.168,-0.445 0.195,-0.457C0.222,-0.468 0.25,-0.474 0.281,-0.474C0.317,-0.474 0.348,-0.468 0.375,-0.455C0.402,-0.442 0.424,-0.426 0.442,-0.405C0.459,-0.384 0.472,-0.361 0.481,-0.335C0.49,-0.308 0.494,-0.281 0.494,-0.254L0.494,-0.235L0.084,-0.235ZM0.473,-0.254C0.472,-0.284 0.467,-0.311 0.458,-0.336C0.448,-0.361 0.435,-0.382 0.418,-0.4C0.401,-0.417 0.381,-0.431 0.358,-0.441C0.335,-0.45 0.309,-0.455 0.28,-0.455C0.245,-0.455 0.216,-0.448 0.191,-0.434C0.166,-0.419 0.146,-0.402 0.131,-0.381C0.115,-0.36 0.103,-0.338 0.096,-0.315C0.089,-0.292 0.085,-0.271 0.085,-0.254L0.473,-0.254Z" style="fill:white;fill-rule:nonzero;"/>
        </g>
        <g transform="matrix(160.54,0,0,160.54,716.774,1010.7)">
            <path d="M0.128,-0.339C0.141,-0.387 0.163,-0.422 0.192,-0.443C0.221,-0.464 0.253,-0.474 0.287,-0.474L0.296,-0.474C0.299,-0.474 0.302,-0.474 0.305,-0.473L0.305,-0.454C0.302,-0.455 0.3,-0.455 0.298,-0.455L0.292,-0.455C0.263,-0.455 0.238,-0.448 0.217,-0.436C0.196,-0.423 0.179,-0.406 0.166,-0.385C0.153,-0.364 0.143,-0.34 0.137,-0.315C0.13,-0.289 0.127,-0.263 0.127,-0.238L0.127,-0L0.105,-0L0.105,-0.344C0.105,-0.351 0.105,-0.36 0.105,-0.371C0.104,-0.382 0.104,-0.393 0.104,-0.404C0.103,-0.415 0.103,-0.425 0.102,-0.435C0.101,-0.445 0.101,-0.453 0.1,-0.46L0.122,-0.46C0.123,-0.453 0.123,-0.445 0.124,-0.435C0.124,-0.425 0.125,-0.38 0.126,-0.369C0.126,-0.358 0.126,-0.348 0.126,-0.339L0.128,-0.339Z" style="fill:white;fill-rule:nonzero;"/>
        </g>
        <g transform="matrix(160.54,0,0,160.54,761.243,1010.7)">
            <path d="M0.113,-0.633C0.107,-0.633 0.102,-0.635 0.097,-0.64C0.092,-0.645 0.09,-0.651 0.09,-0.659C0.09,-0.666 0.092,-0.672 0.097,-0.677C0.102,-0.682 0.107,-0.684 0.113,-0.684C0.119,-0.684 0.124,-0.682 0.129,-0.677C0.134,-0.672 0.136,-0.666 0.136,-0.659C0.136,-0.651 0.134,-0.645 0.129,-0.64C0.124,-0.635 0.118,-0.633 0.113,-0.633ZM0.102,-0L0.102,-0.46L0.124,-0.46L0.124,-0L0.102,-0Z" style="fill:white;fill-rule:nonzero;"/>
        </g>
        <g transform="matrix(160.54,0,0,160.54,791.104,1010.7)">
            <path d="M0.43,-0.398C0.413,-0.416 0.392,-0.43 0.369,-0.44C0.346,-0.45 0.321,-0.455 0.296,-0.455C0.263,-0.455 0.234,-0.449 0.208,-0.437C0.182,-0.424 0.16,-0.408 0.142,-0.387C0.123,-0.366 0.109,-0.342 0.099,-0.315C0.089,-0.288 0.084,-0.259 0.084,-0.229C0.084,-0.199 0.089,-0.17 0.099,-0.143C0.109,-0.116 0.123,-0.092 0.142,-0.072C0.16,-0.051 0.182,-0.035 0.208,-0.023C0.234,-0.011 0.263,-0.005 0.296,-0.005C0.321,-0.005 0.346,-0.009 0.371,-0.018C0.395,-0.027 0.416,-0.04 0.434,-0.057L0.449,-0.043C0.429,-0.023 0.405,-0.009 0.379,0.001C0.352,0.01 0.324,0.014 0.296,0.014C0.262,0.014 0.231,0.008 0.203,-0.004C0.174,-0.016 0.15,-0.033 0.129,-0.054C0.108,-0.075 0.091,-0.101 0.08,-0.131C0.068,-0.161 0.062,-0.194 0.062,-0.229C0.062,-0.264 0.068,-0.297 0.08,-0.327C0.091,-0.357 0.108,-0.383 0.129,-0.405C0.15,-0.426 0.174,-0.443 0.203,-0.456C0.231,-0.468 0.262,-0.474 0.296,-0.474C0.325,-0.474 0.353,-0.469 0.38,-0.458C0.406,-0.447 0.428,-0.432 0.447,-0.413L0.43,-0.398Z" style="fill:white;fill-rule:nonzero;"/>
        </g>
        <g transform="matrix(160.54,0,0,160.54,895.455,1010.7)">
            <path d="M0.502,-0.756L0.524,-0.756L0.524,-0L0.502,-0L0.502,-0.124L0.499,-0.124C0.479,-0.079 0.451,-0.044 0.414,-0.021C0.377,0.002 0.336,0.014 0.292,0.014C0.259,0.014 0.228,0.008 0.2,-0.005C0.171,-0.017 0.147,-0.034 0.127,-0.056C0.106,-0.077 0.09,-0.103 0.079,-0.133C0.068,-0.162 0.062,-0.194 0.062,-0.229C0.062,-0.264 0.068,-0.296 0.079,-0.326C0.09,-0.356 0.106,-0.382 0.127,-0.404C0.147,-0.426 0.171,-0.443 0.2,-0.456C0.228,-0.468 0.259,-0.474 0.292,-0.474C0.336,-0.474 0.377,-0.462 0.414,-0.439C0.451,-0.416 0.479,-0.381 0.499,-0.335L0.502,-0.335L0.502,-0.756ZM0.084,-0.229C0.084,-0.199 0.089,-0.17 0.099,-0.143C0.108,-0.116 0.122,-0.092 0.14,-0.072C0.158,-0.051 0.18,-0.035 0.206,-0.023C0.231,-0.011 0.26,-0.005 0.292,-0.005C0.323,-0.005 0.351,-0.011 0.377,-0.023C0.402,-0.035 0.424,-0.051 0.443,-0.072C0.462,-0.092 0.476,-0.116 0.487,-0.143C0.498,-0.17 0.503,-0.199 0.503,-0.23C0.503,-0.261 0.498,-0.29 0.487,-0.317C0.476,-0.344 0.462,-0.368 0.443,-0.389C0.424,-0.409 0.402,-0.425 0.377,-0.437C0.351,-0.449 0.323,-0.455 0.292,-0.455C0.26,-0.455 0.231,-0.449 0.206,-0.437C0.18,-0.424 0.158,-0.408 0.14,-0.387C0.122,-0.366 0.108,-0.342 0.099,-0.315C0.089,-0.288 0.084,-0.259 0.084,-0.229Z" style="fill:white;fill-rule:nonzero;"/>
        </g>
        <g transform="matrix(160.54,0,0,160.54,989.531,1010.7)">
            <path d="M0.418,-0.104C0.418,-0.087 0.419,-0.068 0.421,-0.049C0.422,-0.029 0.424,-0.013 0.426,-0L0.405,-0C0.404,-0.007 0.403,-0.015 0.402,-0.025C0.401,-0.034 0.401,-0.044 0.4,-0.055C0.399,-0.065 0.398,-0.075 0.398,-0.085C0.397,-0.095 0.397,-0.103 0.397,-0.11L0.394,-0.11C0.381,-0.068 0.358,-0.037 0.325,-0.017C0.292,0.004 0.257,0.014 0.22,0.014C0.201,0.014 0.183,0.011 0.165,0.006C0.146,0.001 0.13,-0.007 0.115,-0.018C0.1,-0.029 0.089,-0.042 0.08,-0.059C0.071,-0.076 0.066,-0.095 0.066,-0.118C0.066,-0.151 0.075,-0.177 0.092,-0.197C0.109,-0.217 0.13,-0.233 0.155,-0.244C0.18,-0.255 0.208,-0.262 0.237,-0.265C0.266,-0.268 0.292,-0.27 0.316,-0.27L0.396,-0.27L0.396,-0.307C0.396,-0.358 0.382,-0.396 0.355,-0.42C0.328,-0.443 0.292,-0.455 0.248,-0.455C0.221,-0.455 0.195,-0.45 0.172,-0.44C0.148,-0.43 0.127,-0.417 0.108,-0.4L0.096,-0.417C0.117,-0.436 0.141,-0.45 0.169,-0.46C0.196,-0.469 0.222,-0.474 0.248,-0.474C0.301,-0.474 0.342,-0.46 0.373,-0.434C0.403,-0.407 0.418,-0.364 0.418,-0.306L0.418,-0.104ZM0.396,-0.251L0.325,-0.251C0.3,-0.251 0.273,-0.249 0.245,-0.247C0.217,-0.243 0.191,-0.237 0.168,-0.228C0.145,-0.219 0.126,-0.205 0.111,-0.188C0.095,-0.171 0.088,-0.147 0.088,-0.118C0.088,-0.097 0.092,-0.079 0.101,-0.065C0.109,-0.05 0.12,-0.039 0.133,-0.03C0.146,-0.021 0.16,-0.015 0.176,-0.011C0.191,-0.007 0.206,-0.005 0.22,-0.005C0.254,-0.005 0.282,-0.011 0.305,-0.024C0.328,-0.037 0.346,-0.053 0.36,-0.073C0.373,-0.092 0.383,-0.114 0.388,-0.138C0.393,-0.161 0.396,-0.184 0.396,-0.207L0.396,-0.251Z" style="fill:white;fill-rule:nonzero;"/>
        </g>
        <g transform="matrix(160.54,0,0,160.54,1063.7,1010.7)">
            <path d="M0.28,0.001C0.272,0.004 0.263,0.007 0.252,0.009C0.241,0.011 0.231,0.012 0.221,0.012C0.185,0.012 0.159,0.002 0.144,-0.019C0.128,-0.039 0.12,-0.064 0.12,-0.095L0.12,-0.441L0.02,-0.441L0.02,-0.46L0.119,-0.46L0.119,-0.595L0.142,-0.595L0.142,-0.46L0.277,-0.46L0.277,-0.441L0.142,-0.441L0.142,-0.095C0.142,-0.064 0.15,-0.041 0.165,-0.028C0.18,-0.014 0.201,-0.007 0.226,-0.007C0.245,-0.007 0.262,-0.01 0.277,-0.016L0.28,0.001Z" style="fill:white;fill-rule:nonzero;"/>
        </g>
        <g transform="matrix(160.54,0,0,160.54,1106.08,1010.7)">
            <path d="M0.418,-0.104C0.418,-0.087 0.419,-0.068 0.421,-0.049C0.422,-0.029 0.424,-0.013 0.426,-0L0.405,-0C0.404,-0.007 0.403,-0.015 0.402,-0.025C0.401,-0.034 0.401,-0.044 0.4,-0.055C0.399,-0.065 0.398,-0.075 0.398,-0.085C0.397,-0.095 0.397,-0.103 0.397,-0.11L0.394,-0.11C0.381,-0.068 0.358,-0.037 0.325,-0.017C0.292,0.004 0.257,0.014 0.22,0.014C0.201,0.014 0.183,0.011 0.165,0.006C0.146,0.001 0.13,-0.007 0.115,-0.018C0.1,-0.029 0.089,-0.042 0.08,-0.059C0.071,-0.076 0.066,-0.095 0.066,-0.118C0.066,-0.151 0.075,-0.177 0.092,-0.197C0.109,-0.217 0.13,-0.233 0.155,-0.244C0.18,-0.255 0.208,-0.262 0.237,-0.265C0.266,-0.268 0.292,-0.27 0.316,-0.27L0.396,-0.27L0.396,-0.307C0.396,-0.358 0.382,-0.396 0.355,-0.42C0.328,-0.443 0.292,-0.455 0.248,-0.455C0.221,-0.455 0.195,-0.45 0.172,-0.44C0.148,-0.43 0.127,-0.417 0.108,-0.4L0.096,-0.417C0.117,-0.436 0.141,-0.45 0.169,-0.46C0.196,-0.469 0.222,-0.474 0.248,-0.474C0.301,-0.474 0.342,-0.46 0.373,-0.434C0.403,-0.407 0.418,-0.364 0.418,-0.306L0.418,-0.104ZM0.396,-0.251L0.325,-0.251C0.3,-0.251 0.273,-0.249 0.245,-0.247C0.217,-0.243 0.191,-0.237 0.168,-0.228C0.145,-0.219 0.126,-0.205 0.111,-0.188C0.095,-0.171 0.088,-0.147 0.088,-0.118C0.088,-0.097 0.092,-0.079 0.101,-0.065C0.109,-0.05 0.12,-0.039 0.133,-0.03C0.146,-0.021 0.16,-0.015 0.176,-0.011C0.191,-0.007 0.206,-0.005 0.22,-0.005C0.254,-0.005 0.282,-0.011 0.305,-0.024C0.328,-0.037 0.346,-0.053 0.36,-0.073C0.373,-0.092 0.383,-0.114 0.388,-0.138C0.393,-0.161 0.396,-0.184 0.396,-0.207L0.396,-0.251Z" style="fill:white;fill-rule:nonzero;"/>
        </g>
        <g transform="matrix(160.54,0,0,160.54,1215.57,1010.7)">
            <path d="M0.128,-0.339C0.141,-0.387 0.163,-0.422 0.192,-0.443C0.221,-0.464 0.253,-0.474 0.287,-0.474L0.296,-0.474C0.299,-0.474 0.302,-0.474 0.305,-0.473L0.305,-0.454C0.302,-0.455 0.3,-0.455 0.298,-0.455L0.292,-0.455C0.263,-0.455 0.238,-0.448 0.217,-0.436C0.196,-0.423 0.179,-0.406 0.166,-0.385C0.153,-0.364 0.143,-0.34 0.137,-0.315C0.13,-0.289 0.127,-0.263 0.127,-0.238L0.127,-0L0.105,-0L0.105,-0.344C0.105,-0.351 0.105,-0.36 0.105,-0.371C0.104,-0.382 0.104,-0.393 0.104,-0.404C0.103,-0.415 0.103,-0.425 0.102,-0.435C0.101,-0.445 0.101,-0.453 0.1,-0.46L0.122,-0.46C0.123,-0.453 0.123,-0.445 0.124,-0.435C0.124,-0.425 0.125,-0.38 0.126,-0.369C0.126,-0.358 0.126,-0.348 0.126,-0.339L0.128,-0.339Z" style="fill:white;fill-rule:nonzero;"/>
        </g>
        <g transform="matrix(160.54,0,0,160.54,1257.15,1010.7)">
            <path d="M0.084,-0.235C0.084,-0.207 0.088,-0.179 0.097,-0.152C0.105,-0.125 0.118,-0.1 0.135,-0.079C0.152,-0.057 0.173,-0.039 0.199,-0.026C0.225,-0.013 0.256,-0.006 0.291,-0.006C0.327,-0.006 0.359,-0.013 0.387,-0.028C0.415,-0.042 0.439,-0.063 0.46,-0.09L0.476,-0.076C0.453,-0.047 0.427,-0.024 0.397,-0.009C0.366,0.006 0.331,0.014 0.291,0.014C0.257,0.014 0.226,0.008 0.198,-0.005C0.17,-0.017 0.146,-0.034 0.126,-0.056C0.105,-0.078 0.09,-0.104 0.079,-0.135C0.068,-0.166 0.062,-0.199 0.062,-0.235C0.062,-0.27 0.068,-0.302 0.079,-0.331C0.09,-0.36 0.106,-0.386 0.126,-0.407C0.145,-0.428 0.168,-0.445 0.195,-0.457C0.222,-0.468 0.25,-0.474 0.281,-0.474C0.317,-0.474 0.348,-0.468 0.375,-0.455C0.402,-0.442 0.424,-0.426 0.442,-0.405C0.459,-0.384 0.472,-0.361 0.481,-0.335C0.49,-0.308 0.494,-0.281 0.494,-0.254L0.494,-0.235L0.084,-0.235ZM0.473,-0.254C0.472,-0.284 0.467,-0.311 0.458,-0.336C0.448,-0.361 0.435,-0.382 0.418,-0.4C0.401,-0.417 0.381,-0.431 0.358,-0.441C0.335,-0.45 0.309,-0.455 0.28,-0.455C0.245,-0.455 0.216,-0.448 0.191,-0.434C0.166,-0.419 0.146,-0.402 0.131,-0.381C0.115,-0.36 0.103,-0.338 0.096,-0.315C0.089,-0.292 0.085,-0.271 0.085,-0.254L0.473,-0.254Z" style="fill:white;fill-rule:nonzero;"/>
        </g>
        <g transform="matrix(160.54,0,0,160.54,1339.99,1010.7)">
            <path d="M0.28,0.001C0.272,0.004 0.263,0.007 0.252,0.009C0.241,0.011 0.231,0.012 0.221,0.012C0.185,0.012 0.159,0.002 0.144,-0.019C0.128,-0.039 0.12,-0.064 0.12,-0.095L0.12,-0.441L0.02,-0.441L0.02,-0.46L0.119,-0.46L0.119,-0.595L0.142,-0.595L0.142,-0.46L0.277,-0.46L0.277,-0.441L0.142,-0.441L0.142,-0.095C0.142,-0.064 0.15,-0.041 0.165,-0.028C0.18,-0.014 0.201,-0.007 0.226,-0.007C0.245,-0.007 0.262,-0.01 0.277,-0.016L0.28,0.001Z" style="fill:white;fill-rule:nonzero;"/>
        </g>
        <g transform="matrix(160.54,0,0,160.54,1382.37,1010.7)">
            <path d="M0.128,-0.339C0.141,-0.387 0.163,-0.422 0.192,-0.443C0.221,-0.464 0.253,-0.474 0.287,-0.474L0.296,-0.474C0.299,-0.474 0.302,-0.474 0.305,-0.473L0.305,-0.454C0.302,-0.455 0.3,-0.455 0.298,-0.455L0.292,-0.455C0.263,-0.455 0.238,-0.448 0.217,-0.436C0.196,-0.423 0.179,-0.406 0.166,-0.385C0.153,-0.364 0.143,-0.34 0.137,-0.315C0.13,-0.289 0.127,-0.263 0.127,-0.238L0.127,-0L0.105,-0L0.105,-0.344C0.105,-0.351 0.105,-0.36 0.105,-0.371C0.104,-0.382 0.104,-0.393 0.104,-0.404C0.103,-0.415 0.103,-0.425 0.102,-0.435C0.101,-0.445 0.101,-0.453 0.1,-0.46L0.122,-0.46C0.123,-0.453 0.123,-0.445 0.124,-0.435C0.124,-0.425 0.125,-0.38 0.126,-0.369C0.126,-0.358 0.126,-0.348 0.126,-0.339L0.128,-0.339Z" style="fill:white;fill-rule:nonzero;"/>
        </g>
        <g transform="matrix(160.54,0,0,160.54,1426.84,1010.7)">
            <path d="M0.113,-0.633C0.107,-0.633 0.102,-0.635 0.097,-0.64C0.092,-0.645 0.09,-0.651 0.09,-0.659C0.09,-0.666 0.092,-0.672 0.097,-0.677C0.102,-0.682 0.107,-0.684 0.113,-0.684C0.119,-0.684 0.124,-0.682 0.129,-0.677C0.134,-0.672 0.136,-0.666 0.136,-0.659C0.136,-0.651 0.134,-0.645 0.129,-0.64C0.124,-0.635 0.118,-0.633 0.113,-0.633ZM0.102,-0L0.102,-0.46L0.124,-0.46L0.124,-0L0.102,-0Z" style="fill:white;fill-rule:nonzero;"/>
        </g>
        <g transform="matrix(160.54,0,0,160.54,1456.7,1010.7)">
            <path d="M0.084,-0.235C0.084,-0.207 0.088,-0.179 0.097,-0.152C0.105,-0.125 0.118,-0.1 0.135,-0.079C0.152,-0.057 0.173,-0.039 0.199,-0.026C0.225,-0.013 0.256,-0.006 0.291,-0.006C0.327,-0.006 0.359,-0.013 0.387,-0.028C0.415,-0.042 0.439,-0.063 0.46,-0.09L0.476,-0.076C0.453,-0.047 0.427,-0.024 0.397,-0.009C0.366,0.006 0.331,0.014 0.291,0.014C0.257,0.014 0.226,0.008 0.198,-0.005C0.17,-0.017 0.146,-0.034 0.126,-0.056C0.105,-0.078 0.09,-0.104 0.079,-0.135C0.068,-0.166 0.062,-0.199 0.062,-0.235C0.062,-0.27 0.068,-0.302 0.079,-0.331C0.09,-0.36 0.106,-0.386 0.126,-0.407C0.145,-0.428 0.168,-0.445 0.195,-0.457C0.222,-0.468 0.25,-0.474 0.281,-0.474C0.317,-0.474 0.348,-0.468 0.375,-0.455C0.402,-0.442 0.424,-0.426 0.442,-0.405C0.459,-0.384 0.472,-0.361 0.481,-0.335C0.49,-0.308 0.494,-0.281 0.494,-0.254L0.494,-0.235L0.084,-0.235ZM0.473,-0.254C0.472,-0.284 0.467,-0.311 0.458,-0.336C0.448,-0.361 0.435,-0.382 0.418,-0.4C0.401,-0.417 0.381,-0.431 0.358,-0.441C0.335,-0.45 0.309,-0.455 0.28,-0.455C0.245,-0.455 0.216,-0.448 0.191,-0.434C0.166,-0.419 0.146,-0.402 0.131,-0.381C0.115,-0.36 0.103,-0.338 0.096,-0.315C0.089,-0.292 0.085,-0.271 0.085,-0.254L0.473,-0.254Z" style="fill:white;fill-rule:nonzero;"/>
        </g>
        <g transform="matrix(160.54,0,0,160.54,1539.54,1010.7)">
            <path d="M0.234,-0L0.205,-0L0.024,-0.46L0.048,-0.46L0.219,-0.022L0.221,-0.022L0.386,-0.46L0.41,-0.46L0.234,-0Z" style="fill:white;fill-rule:nonzero;"/>
        </g>
        <g transform="matrix(160.54,0,0,160.54,1602.79,1010.7)">
            <path d="M0.418,-0.104C0.418,-0.087 0.419,-0.068 0.421,-0.049C0.422,-0.029 0.424,-0.013 0.426,-0L0.405,-0C0.404,-0.007 0.403,-0.015 0.402,-0.025C0.401,-0.034 0.401,-0.044 0.4,-0.055C0.399,-0.065 0.398,-0.075 0.398,-0.085C0.397,-0.095 0.397,-0.103 0.397,-0.11L0.394,-0.11C0.381,-0.068 0.358,-0.037 0.325,-0.017C0.292,0.004 0.257,0.014 0.22,0.014C0.201,0.014 0.183,0.011 0.165,0.006C0.146,0.001 0.13,-0.007 0.115,-0.018C0.1,-0.029 0.089,-0.042 0.08,-0.059C0.071,-0.076 0.066,-0.095 0.066,-0.118C0.066,-0.151 0.075,-0.177 0.092,-0.197C0.109,-0.217 0.13,-0.233 0.155,-0.244C0.18,-0.255 0.208,-0.262 0.237,-0.265C0.266,-0.268 0.292,-0.27 0.316,-0.27L0.396,-0.27L0.396,-0.307C0.396,-0.358 0.382,-0.396 0.355,-0.42C0.328,-0.443 0.292,-0.455 0.248,-0.455C0.221,-0.455 0.195,-0.45 0.172,-0.44C0.148,-0.43 0.127,-0.417 0.108,-0.4L0.096,-0.417C0.117,-0.436 0.141,-0.45 0.169,-0.46C0.196,-0.469 0.222,-0.474 0.248,-0.474C0.301,-0.474 0.342,-0.46 0.373,-0.434C0.403,-0.407 0.418,-0.364 0.418,-0.306L0.418,-0.104ZM0.396,-0.251L0.325,-0.251C0.3,-0.251 0.273,-0.249 0.245,-0.247C0.217,-0.243 0.191,-0.237 0.168,-0.228C0.145,-0.219 0.126,-0.205 0.111,-0.188C0.095,-0.171 0.088,-0.147 0.088,-0.118C0.088,-0.097 0.092,-0.079 0.101,-0.065C0.109,-0.05 0.12,-0.039 0.133,-0.03C0.146,-0.021 0.16,-0.015 0.176,-0.011C0.191,-0.007 0.206,-0.005 0.22,-0.005C0.254,-0.005 0.282,-0.011 0.305,-0.024C0.328,-0.037 0.346,-0.053 0.36,-0.073C0.373,-0.092 0.383,-0.114 0.388,-0.138C0.393,-0.161 0.396,-0.184 0.396,-0.207L0.396,-0.251Z" style="fill:white;fill-rule:nonzero;"/>
        </g>
        <g transform="matrix(160.54,0,0,160.54,1678.57,1010.7)">
            <rect x="0.102" y="-0.756" width="0.022" height="0.756" style="fill:white;fill-rule:nonzero;"/>
        </g>
    </g>
</svg>
